<mxfile host="app.diagrams.net" modified="2023-07-06T15:05:41.058Z" agent="Mozilla/5.0 (Windows NT 10.0; Win64; x64) AppleWebKit/537.36 (KHTML, like Gecko) Chrome/114.0.0.0 Safari/537.36" etag="M0hVodUCICYWuP38Yf_t" version="21.6.1" type="github">
  <diagram name="Page-1" id="jLKKZluM8srTzTSJDMef">
    <mxGraphModel dx="1050" dy="581" grid="1" gridSize="10" guides="1" tooltips="1" connect="1" arrows="1" fold="1" page="1" pageScale="1" pageWidth="850" pageHeight="1100" math="0" shadow="0">
      <root>
        <mxCell id="0" />
        <mxCell id="1" parent="0" />
        <mxCell id="Uau8ywvGDSGfsXAt1Brf-2" style="edgeStyle=orthogonalEdgeStyle;rounded=0;orthogonalLoop=1;jettySize=auto;html=1;exitX=0.5;exitY=1;exitDx=0;exitDy=0;entryX=0.5;entryY=0;entryDx=0;entryDy=0;" edge="1" parent="1" source="Uau8ywvGDSGfsXAt1Brf-1" target="Uau8ywvGDSGfsXAt1Brf-3">
          <mxGeometry relative="1" as="geometry">
            <mxPoint x="260" y="300" as="targetPoint" />
          </mxGeometry>
        </mxCell>
        <mxCell id="Uau8ywvGDSGfsXAt1Brf-1" value="Updating Belief distribution for each arm (Bayes rule)" style="rounded=0;whiteSpace=wrap;html=1;" vertex="1" parent="1">
          <mxGeometry x="201" y="180" width="120" height="60" as="geometry" />
        </mxCell>
        <mxCell id="Uau8ywvGDSGfsXAt1Brf-4" style="edgeStyle=orthogonalEdgeStyle;rounded=0;orthogonalLoop=1;jettySize=auto;html=1;" edge="1" parent="1" source="Uau8ywvGDSGfsXAt1Brf-3">
          <mxGeometry relative="1" as="geometry">
            <mxPoint x="260" y="360" as="targetPoint" />
          </mxGeometry>
        </mxCell>
        <mxCell id="Uau8ywvGDSGfsXAt1Brf-3" value="Calculating Thompson Sampling Policy (Eq. 3)" style="rounded=0;whiteSpace=wrap;html=1;" vertex="1" parent="1">
          <mxGeometry x="201" y="280" width="120" height="60" as="geometry" />
        </mxCell>
        <mxCell id="Uau8ywvGDSGfsXAt1Brf-6" style="edgeStyle=orthogonalEdgeStyle;rounded=0;orthogonalLoop=1;jettySize=auto;html=1;exitX=0.5;exitY=1;exitDx=0;exitDy=0;" edge="1" parent="1" source="Uau8ywvGDSGfsXAt1Brf-5">
          <mxGeometry relative="1" as="geometry">
            <mxPoint x="261" y="460" as="targetPoint" />
          </mxGeometry>
        </mxCell>
        <mxCell id="Uau8ywvGDSGfsXAt1Brf-5" value="Calculate optimal policy \pi_{*} for each agent (Eq. 8)" style="rounded=0;whiteSpace=wrap;html=1;" vertex="1" parent="1">
          <mxGeometry x="201" y="360" width="120" height="60" as="geometry" />
        </mxCell>
        <mxCell id="Uau8ywvGDSGfsXAt1Brf-7" value="" style="rounded=0;whiteSpace=wrap;html=1;" vertex="1" parent="1">
          <mxGeometry x="201" y="460" width="120" height="60" as="geometry" />
        </mxCell>
      </root>
    </mxGraphModel>
  </diagram>
</mxfile>
